<svg xmlns="http://www.w3.org/2000/svg" width="51.574" height="49.764" viewBox="0 0 51.574 49.764"><path d="M39.565,14.9V37.16a3.71,3.71,0,0,1-3.709,3.709H3.709A3.71,3.71,0,0,1,0,37.16V14.9A3.71,3.71,0,0,1,3.709,11.2h6.8l.95-2.542a3.7,3.7,0,0,1,3.47-2.4h9.7a3.7,3.7,0,0,1,3.47,2.4l.958,2.542h6.8A3.71,3.71,0,0,1,39.565,14.9ZM29.056,26.033a9.273,9.273,0,1,0-9.273,9.273A9.28,9.28,0,0,0,29.056,26.033Zm-2.473,0a6.8,6.8,0,1,1-6.8-6.8A6.81,6.81,0,0,1,26.583,26.033Z" transform="translate(-3.125 14.37) rotate(-30)" fill="#3e4e5e"/></svg>