<svg xmlns="http://www.w3.org/2000/svg" width="98.767" height="76.542" viewBox="0 0 98.767 76.542"><path d="M90.261,34.066l-2.313-5.6-4.1-9.933A22.941,22.941,0,0,0,62.45,4.5H36.318a22.943,22.943,0,0,0-21.4,14.033l-4.1,9.933-2.313,5.6A12.753,12.753,0,0,0,0,45.96v9.568a12.432,12.432,0,0,0,3.292,8.358V74.664a6.485,6.485,0,0,0,6.584,6.379h6.584a6.485,6.485,0,0,0,6.584-6.379V68.285H75.722v6.379a6.485,6.485,0,0,0,6.584,6.379H88.89a6.485,6.485,0,0,0,6.584-6.379V63.886a12.424,12.424,0,0,0,3.292-8.358V45.96A12.753,12.753,0,0,0,90.261,34.066Zm-63.114-10.8a9.881,9.881,0,0,1,9.171-6.014H62.45a9.881,9.881,0,0,1,9.171,6.014l4.1,9.933H23.046l4.1-9.933ZM16.461,55.488c-3.951,0-6.584-2.543-6.584-6.359s2.634-6.359,6.584-6.359,9.877,5.723,9.877,9.538S20.412,55.488,16.461,55.488Zm65.845,0c-3.951,0-9.877.636-9.877-3.179s5.926-9.538,9.877-9.538,6.584,2.543,6.584,6.359S86.257,55.488,82.306,55.488Z" transform="translate(0 -4.5)" fill="#3e4e5e"/></svg>