<svg xmlns="http://www.w3.org/2000/svg" width="47.955" height="54.05" viewBox="0 0 47.955 54.05"><g transform="translate(-15.85 16.349) rotate(-30)"><path d="M42.85,51.289V25.936a4.071,4.071,0,0,0-4.061-4.061H13.436a4.071,4.071,0,0,0-4.061,4.061V51.3a4.071,4.071,0,0,0,4.061,4.061H38.8A4.083,4.083,0,0,0,42.85,51.289ZM19.769,40.134l4.308,6.086,6.343-9.129,8.369,12.173H13.436Z" transform="translate(0 -6.414)" fill="#3e4e5e"/><path d="M51.289,9.375H25.936a4.071,4.071,0,0,0-4.061,4.061v.5H46.724A4.071,4.071,0,0,1,50.785,18V42.85h.5a4.071,4.071,0,0,0,4.061-4.061V13.436A4.071,4.071,0,0,0,51.289,9.375Z" transform="translate(-6.414)" fill="#3e4e5e"/></g></svg>