<svg xmlns="http://www.w3.org/2000/svg" width="100.636" height="78.258" viewBox="0 0 100.636 78.258"><path d="M48.983,22.556,16.773,49.084V77.716a2.8,2.8,0,0,0,2.8,2.8l19.577-.051a2.8,2.8,0,0,0,2.781-2.8V60.945a2.8,2.8,0,0,1,2.8-2.8H55.9a2.8,2.8,0,0,1,2.8,2.8V77.653a2.8,2.8,0,0,0,2.8,2.8l19.57.054a2.8,2.8,0,0,0,2.8-2.8V49.065l-32.2-26.509A2.13,2.13,0,0,0,48.983,22.556ZM99.861,40.587,85.256,28.548V4.35a2.1,2.1,0,0,0-2.1-2.1H73.376a2.1,2.1,0,0,0-2.1,2.1V17.035L55.639,4.167a8.386,8.386,0,0,0-10.657,0L.76,40.587a2.1,2.1,0,0,0-.28,2.952l4.455,5.416a2.1,2.1,0,0,0,2.954.285L48.983,15.393a2.13,2.13,0,0,1,2.673,0l41.1,33.847a2.1,2.1,0,0,0,2.952-.28l4.455-5.416a2.1,2.1,0,0,0-.3-2.958Z" transform="translate(0.001 -2.254)" fill="#3e4e5e"/></svg>